<svg width="327" height="210" viewBox="0 0 327 210" fill="none" xmlns="http://www.w3.org/2000/svg">
<path fill-rule="evenodd" clip-rule="evenodd" d="M96.088 207.825C128.368 206.562 160.647 205.299 192.927 204.037C213.842 203.218 236.879 201.518 251.681 186.718C257.646 180.756 262.075 172.808 269.725 169.256C280.839 164.095 294.179 170.205 306.083 167.297C318.988 164.146 327.45 150.151 326.648 136.893C325.846 123.634 317.256 111.714 306.234 104.299C295.212 96.8854 281.991 93.4372 268.851 91.4858C255.712 89.5344 242.385 88.9514 229.306 86.6232C225.61 85.9654 221.509 84.8722 219.629 81.6235C216.489 76.198 222.116 69.5298 228.083 67.6101C234.049 65.6903 240.78 66.1084 246.226 63.0064C253.394 58.9243 256.243 49.3257 253.959 41.3994C251.674 33.474 245.152 27.2862 237.732 23.6846C230.31 20.082 222.01 18.751 213.811 17.8535C148.642 10.7173 81.0019 29.3479 28.678 68.8442C21.7976 74.0376 19.3485 76.1529 14.9862 83.5883C10.624 91.0246 10.1503 101.49 16.2587 107.573C21.4102 112.703 29.5334 113.324 36.7408 112.381C43.9483 111.439 51.1068 109.249 58.3449 109.926C65.582 110.603 73.2152 115.306 74.0668 122.524C74.8992 129.571 69.1071 135.672 63.0322 139.338C54.4477 144.52 44.5994 147.107 35.0646 150.213C25.5298 153.319 15.8896 157.187 8.79145 164.27C1.69238 171.352 -2.30258 182.38 1.41909 191.691C4.03221 198.23 10.0247 202.977 16.58 205.549C23.1363 208.122 30.2699 208.778 37.3028 209.15C56.0943 210.144 77.284 208.56 96.088 207.825Z" fill="#E7E5FF"/>
<path fill-rule="evenodd" clip-rule="evenodd" d="M57.3997 31.7554C53.5265 33.4249 49.5651 35.1164 45.3601 35.4386C41.1551 35.7608 36.5877 34.4682 34.0168 31.1254C31.4525 27.7904 31.3806 23.0016 33.0166 19.1257C34.6525 15.2508 37.7557 12.1708 41.1177 9.64215C48.679 3.95585 57.9501 0.572832 67.3967 0.0540644C72.364 -0.219223 77.7887 0.465434 81.3713 3.91749C87.265 9.59708 84.7507 18.0134 78.6921 22.2978C72.6143 26.5956 64.211 28.8193 57.3997 31.7554Z" fill="#E7E5FF"/>
<path fill-rule="evenodd" clip-rule="evenodd" d="M303.95 55.2799C303.95 65.0224 296.052 72.9199 286.31 72.9199C276.567 72.9199 268.669 65.0224 268.669 55.2799C268.669 45.5374 276.567 37.6399 286.31 37.6399C296.052 37.6399 303.95 45.5374 303.95 55.2799Z" fill="#E7E5FF"/>
</svg>
