<svg width="24" height="24" viewBox="0 0 24 24" fill="none" xmlns="http://www.w3.org/2000/svg">
<path fill-rule="evenodd" clip-rule="evenodd" d="M22.1406 16.125C22.6153 16.125 23 15.7403 23 15.2656V6.15625C23 4.26081 21.4579 2.71875 19.5625 2.71875H18.4453V1.85938C18.4453 1.38474 18.0606 1 17.5859 1C17.1113 1 16.7266 1.38474 16.7266 1.85938V2.71875H12.8164V1.85938C12.8164 1.38474 12.4317 1 11.957 1C11.4824 1 11.0977 1.38474 11.0977 1.85938V2.71875H7.23047V1.85938C7.23047 1.38474 6.84573 1 6.37109 1C5.89646 1 5.51172 1.38474 5.51172 1.85938V2.71875H4.4375C2.54206 2.71875 1 4.26081 1 6.15625V19.5625C1 21.4579 2.54206 23 4.4375 23H19.5625C21.4579 23 23 21.4579 23 19.5625C23 19.0879 22.6153 18.7031 22.1406 18.7031C21.666 18.7031 21.2812 19.0879 21.2812 19.5625C21.2812 20.5102 20.5102 21.2812 19.5625 21.2812H4.4375C3.48978 21.2812 2.71875 20.5102 2.71875 19.5625V6.15625C2.71875 5.20853 3.48978 4.4375 4.4375 4.4375H5.51172V5.29688C5.51172 5.77151 5.89646 6.15625 6.37109 6.15625C6.84573 6.15625 7.23047 5.77151 7.23047 5.29688V4.4375H11.0977V5.29688C11.0977 5.77151 11.4824 6.15625 11.957 6.15625C12.4317 6.15625 12.8164 5.77151 12.8164 5.29688V4.4375H16.7266V5.29688C16.7266 5.77151 17.1113 6.15625 17.5859 6.15625C18.0606 6.15625 18.4453 5.77151 18.4453 5.29688V4.4375H19.5625C20.5102 4.4375 21.2812 5.20853 21.2812 6.15625V15.2656C21.2812 15.7403 21.666 16.125 22.1406 16.125Z" fill="#7065E4"/>
<circle cx="6.37109" cy="10.0234" r="0.859375" fill="#7065E4"/>
<circle cx="13.8477" cy="10.0234" r="0.859375" fill="#7065E4"/>
<circle cx="17.5859" cy="10.0234" r="0.859375" fill="#7065E4"/>
<circle cx="6.37109" cy="13.7617" r="0.859375" fill="#7065E4"/>
<circle cx="6.37109" cy="17.5" r="0.859375" fill="#7065E4"/>
<circle cx="10.1094" cy="10.0234" r="0.859375" fill="#7065E4"/>
<circle cx="10.1094" cy="13.7617" r="0.859375" fill="#7065E4"/>
<circle cx="10.1094" cy="17.5" r="0.859375" fill="#7065E4"/>
<circle cx="13.8477" cy="13.7617" r="0.859375" fill="#7065E4"/>
<circle cx="17.5859" cy="13.7617" r="0.859375" fill="#7065E4"/>
<circle cx="13.8477" cy="17.5" r="0.859375" fill="#7065E4"/>
</svg>
