<svg width="24" height="24" viewBox="0 0 24 24" fill="none" xmlns="http://www.w3.org/2000/svg">
<path fill-rule="evenodd" clip-rule="evenodd" d="M22 14.7344C22 11.9343 19.1963 9.65625 15.75 9.65625V4.1875C15.75 3.32594 15.0491 2.625 14.1875 2.625H10.6328C10.4171 2.625 10.2422 2.79988 10.2422 3.01562C10.2422 3.23137 10.4171 3.40625 10.6328 3.40625H14.1875C14.6183 3.40625 14.9688 3.75672 14.9688 4.1875V11.2188C14.9688 11.6495 14.6183 12 14.1875 12H8.15938C8.0041 12 7.86359 12.092 7.80141 12.2343C7.36801 13.2263 6.51184 13.9466 5.49848 14.2214C5.90801 13.7135 6.14062 13.0732 6.14062 12.3906C6.14062 12.1749 5.9657 12 5.75 12H3.5625C3.13172 12 2.78125 11.6495 2.78125 11.2188V4.1875C2.78125 3.75672 3.13172 3.40625 3.5625 3.40625H7.11719C7.33289 3.40625 7.50781 3.23137 7.50781 3.01562C7.50781 2.79988 7.33289 2.625 7.11719 2.625H3.5625C2.70094 2.625 2 3.32594 2 4.1875V11.2188C2 12.0803 2.70094 12.7812 3.5625 12.7809H5.3241C5.12657 13.8603 4.27572 14.2599 4.06063 14.3608L4.06061 14.3609C4.03475 14.373 4.01808 14.3808 4.01285 14.385C3.85082 14.466 3.76574 14.6478 3.80734 14.8241C3.84895 15.0005 4.00633 15.125 4.1875 15.125H4.57812C6.20016 15.125 7.6757 14.2132 8.40652 12.7809H9.78281C9.52711 13.4133 9.5 14.0868 9.5 14.7344C9.5 17.5345 12.3037 19.8125 15.75 19.8125C16.0609 19.8125 16.369 19.7934 16.6857 19.7542C17.4995 20.7733 18.7387 21.375 20.0469 21.375H20.4375C20.6173 21.375 20.7738 21.2523 20.8168 21.0777C20.8598 20.9031 20.778 20.7218 20.6188 20.6383C20.609 20.6303 20.5832 20.6174 20.5452 20.5985L20.5451 20.5985C20.281 20.4667 19.4292 20.0417 19.2897 18.9271C20.9919 17.964 22 16.4127 22 14.7344ZM18.7035 18.3561C18.5716 18.4242 18.4898 18.5612 18.4922 18.7096C18.5032 19.3661 18.732 19.9807 19.1256 20.47C18.3488 20.2579 17.6555 19.7817 17.1778 19.1096C17.0923 18.9893 16.9462 18.9276 16.8006 18.9497C16.4404 19.0046 16.0967 19.0312 15.75 19.0312C12.7345 19.0312 10.2812 17.1037 10.2812 14.7344C10.2812 14.0337 10.3118 13.3567 10.6521 12.7812H14.1875C15.0491 12.7812 15.75 12.0803 15.75 11.2188V10.4375C18.7655 10.4375 21.2188 12.3651 21.2188 14.7344C21.2188 16.1883 20.2785 17.5422 18.7035 18.3561ZM8.875 3.40625C9.09074 3.40625 9.26562 3.23136 9.26562 3.01562C9.26562 2.79989 9.09074 2.625 8.875 2.625C8.65926 2.625 8.48438 2.79989 8.48438 3.01562C8.48438 3.23136 8.65926 3.40625 8.875 3.40625ZM18.0938 15.125C18.3095 15.125 18.4844 14.9501 18.4844 14.7344C18.4844 14.5186 18.3095 14.3438 18.0938 14.3438C17.878 14.3438 17.7031 14.5186 17.7031 14.7344C17.7031 14.9501 17.878 15.125 18.0938 15.125ZM16.1406 14.7344C16.1406 14.9501 15.9657 15.125 15.75 15.125C15.5343 15.125 15.3594 14.9501 15.3594 14.7344C15.3594 14.5186 15.5343 14.3438 15.75 14.3438C15.9657 14.3438 16.1406 14.5186 16.1406 14.7344ZM13.4062 15.125C13.622 15.125 13.7969 14.9501 13.7969 14.7344C13.7969 14.5186 13.622 14.3438 13.4062 14.3438C13.1905 14.3438 13.0156 14.5186 13.0156 14.7344C13.0156 14.9501 13.1905 15.125 13.4062 15.125ZM9.65625 4.96875C9.87195 4.96875 10.0469 5.14363 10.0469 5.35938V6.53125H11.2188C11.4345 6.53125 11.6094 6.70613 11.6094 6.92188V8.48438C11.6094 8.70012 11.4345 8.875 11.2188 8.875H10.0469V10.0469C10.0469 10.2626 9.87195 10.4375 9.65625 10.4375H8.09375C7.87805 10.4375 7.70312 10.2626 7.70312 10.0469V8.875H6.53125C6.31555 8.875 6.14062 8.70012 6.14062 8.48438V6.92188C6.14062 6.70613 6.31555 6.53125 6.53125 6.53125H7.70312V5.35938C7.70312 5.14363 7.87805 4.96875 8.09375 4.96875H9.65625ZM10.8281 8.09375V7.3125H9.65625C9.44055 7.3125 9.26562 7.13762 9.26562 6.92188V5.75H8.48438V6.92188C8.48438 7.13762 8.30945 7.3125 8.09375 7.3125H6.92188V8.09375H8.09375C8.30945 8.09375 8.48438 8.26863 8.48438 8.48438V9.65625H9.26562V8.48438C9.26562 8.26863 9.44055 8.09375 9.65625 8.09375H10.8281Z" fill="#FF6F5B"/>
</svg>
