<svg width="24" height="24" viewBox="0 0 24 24" fill="none" xmlns="http://www.w3.org/2000/svg">
<circle cx="12.0435" cy="11.3361" r="1.67574" fill="#747F9E"/>
<path fill-rule="evenodd" clip-rule="evenodd" d="M7.14514 11.3359C7.14514 8.63496 9.34252 6.43758 12.0435 6.43758C14.7444 6.43758 16.9418 8.63496 16.9418 11.3359C16.9418 14.0368 14.7444 16.2342 12.0435 16.2342C9.34252 16.2342 7.14514 14.0368 7.14514 11.3359ZM8.86385 11.3359C8.86385 13.0891 10.2902 14.5155 12.0435 14.5155C13.7967 14.5155 15.2231 13.0891 15.2231 11.3359C15.2231 9.58264 13.7967 8.15629 12.0435 8.15629C10.2902 8.15629 8.86385 9.58264 8.86385 11.3359Z" fill="#747F9E"/>
<path d="M22.4434 9.46014C21.9872 8.75949 20.6997 6.96077 18.604 5.39388C16.4798 3.80554 14.2643 3.00013 12.0193 3.00013C9.77737 3.00013 7.56001 3.80334 5.42876 5.38739C3.3238 6.95188 2.02602 8.74836 1.56574 9.44811C0.811421 10.5949 0.811421 12.0768 1.56574 13.2236C2.02602 13.9234 3.3238 15.7199 5.42876 17.2844C7.56001 18.8684 9.77732 19.6717 12.0193 19.6717C15.4707 19.6717 18.2462 17.7472 19.9666 16.1328C20.3127 15.808 20.3301 15.2642 20.0053 14.9181C19.6805 14.572 19.1367 14.5547 18.7906 14.8794C17.2963 16.2816 14.9085 17.953 12.0192 17.953C7.84674 17.953 4.38767 14.3865 3.00154 12.2792C2.62462 11.7062 2.62462 10.9657 3.00154 10.3927C4.38767 8.28533 7.84674 4.71892 12.0192 4.71892C16.1915 4.71892 19.6295 8.28877 21.0031 10.3981C21.3742 10.9678 21.3742 11.7041 21.0031 12.2738C20.7442 12.6715 20.8566 13.2038 21.2543 13.4628C21.652 13.7218 22.1844 13.6094 22.4434 13.2117C23.1854 12.0722 23.1854 10.5996 22.4434 9.46014Z" fill="#747F9E"/>
</svg>
