<svg width="24" height="24" viewBox="0 0 24 24" fill="none" xmlns="http://www.w3.org/2000/svg">
<circle cx="12" cy="6.45703" r="0.859375" fill="#7065E4"/>
<path fill-rule="evenodd" clip-rule="evenodd" d="M19.7782 4.2218C17.7005 2.14421 14.9382 1 12 1C9.0618 1 6.29947 2.14421 4.2218 4.2218C2.14421 6.29947 1 9.0618 1 12C1 14.9382 2.14421 17.7005 4.2218 19.7782C6.29947 21.8558 9.0618 23 12 23C14.0115 23 15.9797 22.4518 17.6917 21.4148C18.0977 21.1688 18.2274 20.6404 17.9815 20.2344C17.7356 19.8285 17.2071 19.6988 16.8012 19.9447C15.3577 20.8191 13.6975 21.2812 12 21.2812C6.88229 21.2812 2.71875 17.1177 2.71875 12C2.71875 6.88229 6.88229 2.71875 12 2.71875C17.1177 2.71875 21.2812 6.88229 21.2812 12C21.2812 13.83 20.7371 15.6113 19.7074 17.1513C19.4436 17.5458 19.5497 18.0795 19.9442 18.3433C20.3388 18.607 20.8725 18.5011 21.1363 18.1065C22.3555 16.2829 23 14.1712 23 12C23 9.0618 21.8558 6.29947 19.7782 4.2218Z" fill="#7065E4"/>
<path fill-rule="evenodd" clip-rule="evenodd" d="M12 9.03516C11.5254 9.03516 11.1406 9.4199 11.1406 9.89453V17.543C11.1406 18.0176 11.5254 18.4023 12 18.4023C12.4746 18.4023 12.8594 18.0176 12.8594 17.543V9.89453C12.8594 9.4199 12.4746 9.03516 12 9.03516Z" fill="#7065E4"/>
</svg>
