<svg width="24" height="24" viewBox="0 0 24 24" fill="none" xmlns="http://www.w3.org/2000/svg">
<path fill-rule="evenodd" clip-rule="evenodd" d="M8.61978 1H15.3802C19.5818 1 23 4.41821 23 8.61978V15.3802C23 19.5818 19.5818 23 15.3802 23H8.61978C4.41821 23 1 19.5818 1 15.3802V12C1 11.5254 1.38474 11.1406 1.85938 11.1406C2.33401 11.1406 2.71875 11.5254 2.71875 12V15.3802C2.71875 18.6341 5.36593 21.2812 8.61978 21.2812H15.3802C18.6341 21.2812 21.2812 18.6341 21.2812 15.3802V8.61978C21.2812 5.36593 18.6341 2.71875 15.3802 2.71875H8.61978C7.07441 2.71875 5.60612 3.33157 4.51841 4.38022H6.14405C6.61868 4.38022 7.00342 4.76497 7.00342 5.2396C7.00342 5.71423 6.61868 6.09897 6.14405 6.09897H2.76382C2.2925 6.09897 1.90445 5.71423 1.90445 5.2396V1.85938C1.90445 1.38474 2.28919 1 2.76382 1C3.23846 1 3.6232 1.38474 3.6232 1.85938V2.8682C5.04405 1.63259 6.81982 1 8.61978 1ZM12.8594 11.644V6.92969C12.8594 6.45505 12.4746 6.07031 12 6.07031C11.5254 6.07031 11.1406 6.45505 11.1406 6.92969V12C11.1406 12.2279 11.2312 12.4465 11.3923 12.6077L14.7726 15.9879C15.1081 16.3235 15.6523 16.3235 15.9879 15.9879C16.3235 15.6523 16.3235 15.1082 15.9879 14.7726L12.8594 11.644Z" fill="#747F9E"/>
</svg>
