<svg width="24" height="24" viewBox="0 0 24 24" fill="none" xmlns="http://www.w3.org/2000/svg">
<path fill-rule="evenodd" clip-rule="evenodd" d="M9 12C9 10.3457 10.3457 9 12 9C13.6543 9 15 10.3457 15 12C15 13.6543 13.6543 15 12 15C10.3457 15 9 13.6543 9 12ZM9.99998 12C9.99998 13.1031 10.8975 14 12 14C13.1025 14 14 13.1031 14 12C14 10.8969 13.1025 9.99998 12 9.99998C10.8975 9.99998 9.99998 10.8969 9.99998 12Z" fill="#747F9E"/>
<path fill-rule="evenodd" clip-rule="evenodd" d="M9 21C9 19.3457 10.3457 18 12 18C13.6543 18 15 19.3457 15 21C15 22.6543 13.6543 24 12 24C10.3457 24 9 22.6543 9 21ZM9.99998 21C9.99998 22.1031 10.8975 23 12 23C13.1025 23 14 22.1031 14 21C14 19.8969 13.1025 19 12 19C10.8975 19 9.99998 19.8969 9.99998 21Z" fill="#747F9E"/>
<path fill-rule="evenodd" clip-rule="evenodd" d="M15 3C15 4.65431 13.6543 6 12 6C10.3457 6 9 4.65431 9 3C9 1.34569 10.3457 0 12 0C13.6543 0 15 1.34569 15 3ZM14 3C14 1.89694 13.1025 0.999984 12 0.999984C10.8975 0.999984 9.99998 1.89698 9.99998 3C9.99998 4.10302 10.8975 5.00002 12 5.00002C13.1025 5.00002 14 4.10306 14 3Z" fill="#747F9E"/>
</svg>
