<svg width="24" height="24" viewBox="0 0 24 24" fill="none" xmlns="http://www.w3.org/2000/svg">
<path fill-rule="evenodd" clip-rule="evenodd" d="M23 11.4271C23 11.9018 22.6153 12.2865 22.1406 12.2865C21.666 12.2865 21.2812 11.9018 21.2812 11.4271V9.27868H2.71875V15.7188C2.71875 16.6665 3.48978 17.4375 4.4375 17.4375H19.5625C20.5102 17.4375 21.2812 16.6665 21.2812 15.7188C21.2812 15.2441 21.666 14.8594 22.1406 14.8594C22.6153 14.8594 23 15.2441 23 15.7188C23 17.6142 21.4579 19.1562 19.5625 19.1562H4.4375C2.54206 19.1562 1 17.6142 1 15.7188V6.4375C1 4.54206 2.54206 3 4.4375 3H19.5625C21.4579 3 23 4.54206 23 6.4375V11.4271ZM2.71875 6.4375V7.55993H21.2812V6.4375C21.2812 5.48978 20.5102 4.71875 19.5625 4.71875H4.4375C3.48978 4.71875 2.71875 5.48978 2.71875 6.4375Z" fill="#747F9E"/>
</svg>
