<svg width="24" height="24" viewBox="0 0 24 24" fill="none" xmlns="http://www.w3.org/2000/svg">
<path d="M18.3516 16.1302C18.8262 16.1302 19.2109 15.7455 19.2109 15.2709V4.4375C19.2109 2.54206 17.6689 1 15.7734 1H7.4375C5.54206 1 4 2.54206 4 4.4375V19.5625C4 21.4579 5.54206 23 7.4375 23H15.7734C17.6689 23 19.2109 21.4579 19.2109 19.5625C19.2109 19.0879 18.8262 18.7031 18.3516 18.7031C17.8769 18.7031 17.4922 19.0879 17.4922 19.5625C17.4922 20.5102 16.7212 21.2812 15.7734 21.2812H7.4375C6.48978 21.2812 5.71875 20.5102 5.71875 19.5625V4.4375C5.71875 3.48978 6.48978 2.71875 7.4375 2.71875H15.7734C16.7212 2.71875 17.4922 3.48978 17.4922 4.4375V15.2709C17.4922 15.7455 17.8769 16.1302 18.3516 16.1302Z" fill="#747F9E"/>
<circle cx="11.6055" cy="19.0951" r="0.859375" fill="#747F9E"/>
<path d="M13.3242 4.9154C13.3242 4.44077 12.9395 4.05602 12.4648 4.05602H10.7461C10.2715 4.05602 9.88672 4.44077 9.88672 4.9154C9.88672 5.39003 10.2715 5.77477 10.7461 5.77477H12.4648C12.9395 5.77477 13.3242 5.38999 13.3242 4.9154Z" fill="#747F9E"/>
</svg>
