<svg width="24" height="24" viewBox="0 0 24 24" fill="none" xmlns="http://www.w3.org/2000/svg">
<path fill-rule="evenodd" clip-rule="evenodd" d="M18.7217 15.3086V6.58594C18.7217 5.63828 17.9508 4.86719 17.0029 4.86719H14.2959V5.29688C14.2959 6.71854 13.1395 7.875 11.7178 7.875C10.2963 7.875 9.13966 6.71854 9.13966 5.29688V4.86719H6.4375C5.48967 4.86719 4.71875 5.63828 4.71875 6.58594V19.5625C4.71875 20.5102 5.48967 21.2812 6.4375 21.2812H17.0029C17.9508 21.2812 18.7217 20.5102 18.7217 19.5625C18.7217 19.0878 19.1066 18.7031 19.5811 18.7031C20.0557 18.7031 20.4404 19.0878 20.4404 19.5625C20.4404 21.458 18.8984 23 17.0029 23H6.4375C4.54201 23 3 21.458 3 19.5625V6.58594C3 4.69044 4.54201 3.14844 6.4375 3.14844H9.13983V1.85938C9.13983 1.3847 9.52454 1 9.99921 1H13.4367C13.9112 1 14.2961 1.3847 14.2961 1.85938V3.14844H17.0031C18.8984 3.14844 20.4406 4.69044 20.4406 6.58594V15.3086C20.4406 15.7833 20.0557 16.168 19.5812 16.168C19.1066 16.168 18.7217 15.7833 18.7217 15.3086ZM10.9014 17.5V15.3516H8.75294C8.27844 15.3516 7.89357 14.9669 7.89357 14.4922C7.89357 14.0175 8.27844 13.6328 8.75294 13.6328H10.9014V11.4844C10.9014 11.0097 11.2863 10.625 11.7608 10.625C12.2354 10.625 12.6201 11.0097 12.6201 11.4844V13.6328H14.7686C15.2432 13.6328 15.6279 14.0175 15.6279 14.4922C15.6279 14.9669 15.2432 15.3516 14.7686 15.3516H12.6201V17.5C12.6201 17.9747 12.2354 18.3594 11.7608 18.3594C11.2863 18.3594 10.9014 17.9747 10.9014 17.5ZM10.8584 2.71875H12.5772V5.29688C12.5772 5.77071 12.1916 6.15625 11.7178 6.15625C11.244 6.15625 10.8584 5.77071 10.8584 5.29688V2.71875Z" fill="#747F9E"/>
</svg>
