<svg width="24" height="24" viewBox="0 0 24 24" fill="none" xmlns="http://www.w3.org/2000/svg">
<path fill-rule="evenodd" clip-rule="evenodd" d="M16.4613 16.947C17.1396 16.1303 18.1625 15.6094 19.3047 15.6094C21.3423 15.6094 23 17.2671 23 19.3047C23 21.3423 21.3423 23 19.3047 23C17.2671 23 15.6094 21.3423 15.6094 19.3047C15.6094 19.0242 15.6408 18.7509 15.7003 18.4881L12.8205 17.0558C12.3955 16.8445 12.2224 16.3286 12.4337 15.9037C12.6451 15.4787 13.1609 15.3057 13.5859 15.5169L16.4613 16.947ZM17.3281 19.3047C17.3281 20.3945 18.2148 21.2813 19.3047 21.2813C20.3946 21.2813 21.2813 20.3945 21.2813 19.3047C21.2813 18.2148 20.3946 17.3281 19.3047 17.3281C18.5689 17.3281 17.9257 17.7323 17.5855 18.3303C17.5728 18.3684 17.5574 18.406 17.539 18.4428C17.5218 18.4775 17.5024 18.5105 17.4813 18.5418C17.3827 18.7767 17.3281 19.0344 17.3281 19.3047Z" fill="#747F9E"/>
<path fill-rule="evenodd" clip-rule="evenodd" d="M19.3047 1C17.2671 1 15.6094 2.65769 15.6094 4.69531C15.6094 4.98007 15.6418 5.25739 15.703 5.52379L7.52437 9.62516C6.84598 8.81834 5.82952 8.30469 4.69531 8.30469C2.65773 8.30469 1 9.96238 1 12C1 14.0376 2.65773 15.6953 4.69531 15.6953C5.82462 15.6953 6.83722 15.1861 7.51557 14.3853L8.90316 15.0915C9.02802 15.155 9.1611 15.1851 9.29224 15.1851C9.60531 15.1851 9.90712 15.0135 10.0588 14.7154C10.2741 14.2923 10.1058 13.775 9.68274 13.5597L8.29154 12.8517C8.35634 12.5782 8.39062 12.293 8.39062 12C8.39062 11.7117 8.35745 11.4311 8.29468 11.1616L16.4691 7.06238C17.1475 7.87371 18.1669 8.39062 19.3047 8.39062C21.3423 8.39062 23 6.73293 23 4.69531C23 2.65769 21.3423 1 19.3047 1ZM4.69531 13.9766C3.60545 13.9766 2.71875 13.0899 2.71875 12C2.71875 10.9101 3.60545 10.0234 4.69531 10.0234C5.78517 10.0234 6.67188 10.9101 6.67188 12C6.67188 13.0899 5.78517 13.9766 4.69531 13.9766ZM17.3281 4.69531C17.3281 5.78517 18.2148 6.67188 19.3047 6.67188C20.3945 6.67188 21.2812 5.78517 21.2812 4.69531C21.2812 3.60545 20.3945 2.71875 19.3047 2.71875C18.2148 2.71875 17.3281 3.60545 17.3281 4.69531Z" fill="#747F9E"/>
</svg>
