<svg width="24" height="24" viewBox="0 0 24 24" fill="none" xmlns="http://www.w3.org/2000/svg">
<path fill-rule="evenodd" clip-rule="evenodd" d="M21.9277 19.1852C22.3925 19.0885 22.8475 19.3867 22.9442 19.8513C23.1059 20.6277 22.9123 21.425 22.413 22.0388C21.9162 22.6497 21.1796 23 20.3921 23H3.6079C2.82037 23 2.08376 22.6497 1.58699 22.0388C1.08778 21.425 0.894124 20.6277 1.05577 19.8513C1.57153 17.3739 2.9378 15.1194 4.90285 13.503C5.97449 12.6216 7.19889 11.9531 8.50376 11.5235C7.07956 10.4567 6.15625 8.75603 6.15625 6.84375C6.15625 3.62152 8.77773 1 12 1C15.2223 1 17.8437 3.62152 17.8437 6.84375C17.8437 8.75487 16.9216 10.4547 15.4989 11.5215C17.8335 12.29 19.8811 13.8192 21.2912 15.9223C21.5556 16.3165 21.4502 16.8503 21.056 17.1146C20.6618 17.3789 20.128 17.2736 19.8637 16.8794C18.1432 14.3136 15.3023 12.7568 12.2287 12.6831C12.1528 12.686 12.0766 12.6875 12 12.6875C11.9237 12.6875 11.8478 12.686 11.7722 12.6831C7.40875 12.7886 3.63029 15.9179 2.73843 20.2017C2.6827 20.4693 2.74904 20.7437 2.92044 20.9544C3.0197 21.0765 3.24103 21.2812 3.6079 21.2812H20.3921C20.759 21.2812 20.9803 21.0765 21.0796 20.9544C21.2509 20.7436 21.3173 20.4693 21.2616 20.2017C21.1648 19.737 21.463 19.2819 21.9277 19.1852ZM12 2.71875C9.72545 2.71875 7.875 4.5692 7.875 6.84375C7.875 9.04856 9.61373 10.8549 11.792 10.9636C11.8613 10.9623 11.9306 10.9616 12 10.9616C12.0697 10.9616 12.1393 10.9622 12.2088 10.9635C14.3867 10.8544 16.125 9.04826 16.125 6.84375C16.125 4.5692 14.2745 2.71875 12 2.71875Z" fill="#747F9E"/>
</svg>
