<svg width="24" height="24" viewBox="0 0 24 24" fill="none" xmlns="http://www.w3.org/2000/svg">
<path fill-rule="evenodd" clip-rule="evenodd" d="M16.1719 14.8595C16.1719 13.3086 17.4336 12.047 18.9844 12.047H22.125V9.37503C22.125 8.34116 21.2839 7.50003 20.25 7.50003H2.8125C2.48391 7.50003 2.16839 7.44327 1.875 7.33921V20.25C1.875 21.2839 2.71613 22.125 3.75 22.125H20.25C21.0586 22.125 21.7736 21.6102 22.0292 20.844C22.1931 20.3528 22.7241 20.0875 23.2152 20.2513C23.7064 20.4152 23.9717 20.9462 23.8079 21.4373C23.2965 22.9701 21.8667 24 20.25 24H3.75C1.68225 24 0 22.3178 0 20.25V4.73441V4.68753V4.45316C0 4.32149 0.027375 4.19633 0.0764062 4.08261C0.371203 2.84507 1.48603 1.92191 2.8125 1.92191H4.54688C5.06466 1.92191 5.48438 2.34163 5.48438 2.85941C5.48438 3.37719 5.06466 3.79691 4.54688 3.79691H2.8125C2.30339 3.79691 1.88775 4.20481 1.87528 4.71097C1.88775 5.21713 2.30339 5.62503 2.8125 5.62503H4.22386L13.2551 0.136346C13.4693 0.00622138 13.7268 -0.0328255 13.9699 0.028112C14.213 0.0890495 14.4216 0.244768 14.5492 0.460581L15.6098 2.25561L17.9619 0.79705C18.1743 0.665331 18.4304 0.623846 18.6735 0.681878C18.9166 0.739815 19.1265 0.89244 19.2565 1.10582L22.4459 6.338C23.3865 7.01999 24 8.12694 24 9.37503V16.7344C24 17.2522 23.5803 17.6719 23.0625 17.6719C23.0522 17.6719 23.0421 17.6712 23.032 17.6705L23.0159 17.6696L23.0002 17.6705C22.9898 17.6712 22.9793 17.672 22.9688 17.672H18.9844C17.4336 17.672 16.1719 16.4103 16.1719 14.8595ZM18.9844 15.7969H22.125V13.9219H18.9844C18.4674 13.9219 18.0469 14.3425 18.0469 14.8594C18.0469 15.3764 18.4674 15.797 18.9844 15.7969ZM7.83413 5.62508L13.4178 2.23166L14.4161 3.92108C14.4353 3.96725 14.4573 4.01277 14.4845 4.05664C14.5049 4.0895 14.5275 4.12011 14.5511 4.14955L15.423 5.62508H7.83413ZM16.5639 3.87022L17.6009 5.62503H19.8154L18.1472 2.88842L16.5639 3.87022Z" fill="#747F9E"/>
</svg>
